<svg xmlns="http://www.w3.org/2000/svg" viewBox="0 0 120 150" role="img">
  <!-- fries -->
  <g stroke-linecap="round">
    <rect x="40" y="34" width="9" height="46" rx="3" fill="#F2C14E" transform="rotate(-10 44 57)"/>
    <rect x="54" y="28" width="9" height="50" rx="3" fill="#EDB458"/>
    <rect x="68" y="33" width="9" height="47" rx="3" fill="#F2C14E" transform="rotate(10 72 56)"/>
    <rect x="33" y="44" width="8" height="38" rx="3" fill="#E8A94A" transform="rotate(-18 37 63)"/>
    <rect x="80" y="42" width="8" height="40" rx="3" fill="#E8A94A" transform="rotate(18 84 62)"/>
  </g>
  <!-- cheese drizzle -->
  <path d="M36 52 C46 62 40 70 52 66 C60 63 58 74 68 70 C78 66 76 58 86 56" stroke="#E88F2A" stroke-width="6" fill="none" stroke-linecap="round" opacity="0.95"/>
  <circle cx="48" cy="46" r="3.5" fill="#6B3317"/>
  <circle cx="66" cy="42" r="3" fill="#6B3317"/>
  <circle cx="76" cy="50" r="3" fill="#6B3317"/>
  <!-- tray cup -->
  <path d="M28 70 L36 138 Q37 144 43 144 L77 144 Q83 144 84 138 L92 70 Z" fill="#FDFCFA" stroke="#D9D1C4" stroke-width="1.6"/>
  <path d="M32 76 L38 130" stroke="#FFFFFF" opacity="0.6" stroke-width="3" stroke-linecap="round"/>
  <!-- WD label -->
  <rect x="45" y="92" width="30" height="21" rx="3" fill="#FFFFFF" stroke="#E2DAD0" stroke-width="1.2"/>
  <text x="60" y="107" text-anchor="middle" font-family="Georgia, serif" font-size="11" font-weight="bold" fill="#4A2E16">WD</text>
</svg>
