<svg xmlns="http://www.w3.org/2000/svg" viewBox="0 0 120 150" role="img">
  <defs>
    <linearGradient id="g" x1="0" y1="0" x2="0" y2="1">
      <stop offset="0" stop-color="#8E6FC8"/>
      <stop offset="1" stop-color="#C9B6E8"/>
    </linearGradient>
  </defs>
  <!-- drink -->
  <path d="M33 34 L41 137 Q42 143 48 143 L72 143 Q78 143 79 137 L87 34 Z" fill="url(#g)"/>
  <!-- ice -->
  <rect x="40" y="41" width="16" height="16" rx="4" fill="#FFFFFF" opacity="0.32" transform="rotate(-12 48 49)"/>
  <rect x="61" y="38" width="15" height="15" rx="4" fill="#FFFFFF" opacity="0.30" transform="rotate(14 68 45)"/>
  <rect x="50" y="55" width="14" height="14" rx="4" fill="#FFFFFF" opacity="0.26" transform="rotate(6 57 62)"/>
  <!-- plastic cup -->
  <path d="M31 24 L40 138 Q41 145 48 145 L72 145 Q79 145 80 138 L89 24 Z" fill="#FFFFFF" opacity="0.10" stroke="#D9D1C4" stroke-width="1.6"/>
  <!-- sheen -->
  <path d="M38 36 L44 130" stroke="#FFFFFF" opacity="0.35" stroke-width="3.5" stroke-linecap="round" fill="none"/>
  <!-- flat lid -->
  <ellipse cx="60" cy="22" rx="34" ry="6.5" fill="#FDFCFA" stroke="#D9D1C4" stroke-width="1.5"/>
  <ellipse cx="60" cy="20" rx="26" ry="4.5" fill="#F4F1EB" stroke="#DDD6CB" stroke-width="1"/>
  <!-- WD label -->
  <rect x="45" y="78" width="30" height="21" rx="3" fill="#FFFFFF" stroke="#E2DAD0" stroke-width="1.2"/>
  <text x="60" y="93" text-anchor="middle" font-family="Georgia, serif" font-size="11" font-weight="bold" fill="#4A2E16">WD</text>
</svg>
