<svg xmlns="http://www.w3.org/2000/svg" viewBox="0 0 120 150" role="img">
  <!-- fries -->
  <g stroke-linecap="round">
    <rect x="42" y="28" width="9" height="52" rx="3" fill="#F2C14E" transform="rotate(-8 46 54)"/>
    <rect x="55" y="22" width="9" height="55" rx="3" fill="#EDB458"/>
    <rect x="68" y="27" width="9" height="52" rx="3" fill="#F2C14E" transform="rotate(8 72 53)"/>
    <rect x="35" y="38" width="8" height="42" rx="3" fill="#E8A94A" transform="rotate(-16 39 59)"/>
    <rect x="78" y="36" width="8" height="44" rx="3" fill="#E8A94A" transform="rotate(16 82 58)"/>
  </g>
  <!-- carton -->
  <path d="M30 62 L36 138 Q37 144 43 144 L77 144 Q83 144 84 138 L90 62 Z" fill="#92400E"/>
  <path d="M30 62 L36 138 Q37 144 43 144 L60 144 L60 62 Z" fill="#A34A12"/>
  <path d="M28 58 h64 v10 h-64 Z" fill="#B45309" rx="2"/>
  <!-- WD label -->
  <rect x="45" y="86" width="30" height="21" rx="3" fill="#FFFFFF" stroke="#E2DAD0" stroke-width="1.2"/>
  <text x="60" y="101" text-anchor="middle" font-family="Georgia, serif" font-size="11" font-weight="bold" fill="#4A2E16">WD</text>
</svg>
